<?xml version="1.0" encoding="UTF-8"?>
<!DOCTYPE svg PUBLIC "-//W3C//DTD SVG 1.1//EN" "http://www.w3.org/Graphics/SVG/1.1/DTD/svg11.dtd">
<svg xmlns="http://www.w3.org/2000/svg" version="1.1" width="572px" height="327px" style="shape-rendering:geometricPrecision; text-rendering:geometricPrecision; image-rendering:optimizeQuality; fill-rule:evenodd; clip-rule:evenodd" xmlns:xlink="http://www.w3.org/1999/xlink">
<g><path style="opacity:1" fill="#fdfdfd" d="M -0.5,-0.5 C 190.167,-0.5 380.833,-0.5 571.5,-0.5C 571.5,108.5 571.5,217.5 571.5,326.5C 380.833,326.5 190.167,326.5 -0.5,326.5C -0.5,217.5 -0.5,108.5 -0.5,-0.5 Z"/></g>
<g><path style="opacity:1" fill="#262c35" d="M 315.5,23.5 C 317.39,23.2965 318.89,23.9632 320,25.5C 322.333,30.1667 324.667,34.8333 327,39.5C 328.351,41.019 329.851,42.3523 331.5,43.5C 333.375,40.2489 335.375,37.0823 337.5,34C 339.809,33.2438 341.809,33.7438 343.5,35.5C 345.31,43.3778 347.81,51.0444 351,58.5C 353.667,61.1667 356.333,63.8333 359,66.5C 360.136,70.2432 361.47,73.9099 363,77.5C 371.28,87.7823 378.78,98.6156 385.5,110C 368.117,105.263 350.451,101.263 332.5,98C 330.396,92.6688 328.896,87.1688 328,81.5C 326.062,78.8941 323.562,77.0608 320.5,76C 318.604,74.1917 318.104,72.025 319,69.5C 323.3,64.1988 327.966,59.1988 333,54.5C 334.301,52.6354 334.635,50.6354 334,48.5C 327.023,50.9007 319.856,52.5674 312.5,53.5C 312.998,48.8478 313.331,44.1811 313.5,39.5C 308.253,40.6091 302.92,41.4424 297.5,42C 294.065,45.8186 289.731,47.4853 284.5,47C 279.908,55.2606 273.574,61.9273 265.5,67C 262.13,70.035 259.13,73.3683 256.5,77C 249.76,80.5441 242.76,83.2108 235.5,85C 223.952,92.6112 211.618,98.2778 198.5,102C 212.571,92.6155 227.571,84.9488 243.5,79C 247.167,76.6667 250.833,74.3333 254.5,72C 262.806,63.6937 271.14,55.3604 279.5,47C 283.62,44.882 287.953,43.2154 292.5,42C 300.066,35.5898 307.732,29.4231 315.5,23.5 Z"/></g>
<g><path style="opacity:1" fill="#262c35" d="M 219.5,108.5 C 216.615,108.806 213.948,108.473 211.5,107.5C 258.459,95.944 305.459,95.7773 352.5,107C 365.799,110.156 378.799,114.156 391.5,119C 386.209,120.114 381.042,121.614 376,123.5C 351.306,113.951 325.806,107.785 299.5,105C 319.096,111.302 338.096,118.968 356.5,128C 347.224,130.111 338.057,132.611 329,135.5C 311.891,125.03 293.724,116.863 274.5,111C 256.247,108.729 237.914,107.896 219.5,108.5 Z"/></g>
<g><path style="opacity:1" fill="#96999d" d="M 211.5,107.5 C 213.948,108.473 216.615,108.806 219.5,108.5C 215.019,109.648 210.352,109.815 205.5,109C 207.436,108.187 209.436,107.687 211.5,107.5 Z"/></g>
<g><path style="opacity:1" fill="#272d36" d="M 98.5,262.5 C 98.7828,263.289 99.2828,263.956 100,264.5C 100.5,257.842 100.666,251.175 100.5,244.5C 102.534,220.896 110.034,199.229 123,179.5C 133.833,167.55 144.499,167.55 155,179.5C 156.223,183.615 158.223,187.282 161,190.5C 163.92,196.849 165.587,203.515 166,210.5C 169.784,197.363 172.618,184.03 174.5,170.5C 181.087,170.515 187.087,172.348 192.5,176C 195.734,180.532 198.901,185.032 202,189.5C 203.678,182.922 204.844,176.255 205.5,169.5C 213.489,168.584 220.322,170.917 226,176.5C 226.613,180.717 228.613,184.05 232,186.5C 227.81,209.79 223.476,233.123 219,256.5C 216.509,272.428 214.676,288.428 213.5,304.5C 207.333,304.751 202,302.751 197.5,298.5C 191.749,302.586 185.416,304.086 178.5,303C 175.716,299.436 172.049,297.436 167.5,297C 163.105,292.709 160.438,287.542 159.5,281.5C 159.666,274.825 159.5,268.158 159,261.5C 158.209,262.745 157.709,264.078 157.5,265.5C 153.818,275.864 149.318,285.864 144,295.5C 139.076,302.025 132.576,304.525 124.5,303C 117.589,299.959 111.423,295.793 106,290.5C 103.319,284.79 101.653,278.79 101,272.5C 96.2081,288.896 85.5414,299.23 69,303.5C 64.7333,300.913 60.2333,298.746 55.5,297C 48.9183,291.443 45.9183,284.277 46.5,275.5C 54.2988,275.181 61.1322,272.514 67,267.5C 69.2632,262.744 68.5965,258.411 65,254.5C 58.4477,249.294 53.4477,242.96 50,235.5C 47.7548,227.282 48.4214,219.282 52,211.5C 61.7445,191.42 76.0778,175.42 95,163.5C 97.0435,165.208 98.7101,167.208 100,169.5C 103.27,175.04 106.27,180.707 109,186.5C 109.667,191.167 109.667,195.833 109,200.5C 108.535,201.931 107.701,203.097 106.5,204C 97.9092,207.584 90.7425,213.084 85,220.5C 81.5994,225.359 80.2661,230.692 81,236.5C 89.0833,243.671 94.9167,252.338 98.5,262.5 Z"/></g>
<g><path style="opacity:1" fill="#282d36" d="M 493.5,179.5 C 492.347,185.319 492.181,191.319 493,197.5C 493.791,196.255 494.291,194.922 494.5,193.5C 496.122,184.114 500.122,175.947 506.5,169C 514.653,164.711 523.319,163.378 532.5,165C 534.478,165.481 535.811,166.647 536.5,168.5C 535.777,170.782 535.443,173.116 535.5,175.5C 537.655,175.372 539.655,175.872 541.5,177C 537.865,193.287 535.365,209.787 534,226.5C 532.129,248.455 531.129,270.455 531,292.5C 526.883,296.309 522.049,298.642 516.5,299.5C 515.5,299.5 514.5,299.5 513.5,299.5C 513.5,297.5 513.5,295.5 513.5,293.5C 512.209,293.263 511.209,293.596 510.5,294.5C 507.5,294.5 504.5,294.5 501.5,294.5C 501.666,286.493 501.5,278.493 501,270.5C 498.747,279.119 496.247,287.619 493.5,296C 487.131,297.044 481.798,295.211 477.5,290.5C 474.327,289.79 471.327,288.623 468.5,287C 466.229,283.889 465.062,280.389 465,276.5C 462.368,283.778 460.535,291.278 459.5,299C 456.167,299.667 452.833,299.667 449.5,299C 444.314,295.498 439.148,291.998 434,288.5C 432.542,290.96 430.709,293.127 428.5,295C 420.103,299.134 411.269,301.634 402,302.5C 398.14,302.929 396.306,301.262 396.5,297.5C 392.993,298.006 389.826,297.34 387,295.5C 384.601,287.328 383.934,278.994 385,270.5C 390.522,236.699 396.689,203.033 403.5,169.5C 415.19,166.757 422.69,171.091 426,182.5C 430.061,185.572 431.394,189.572 430,194.5C 423.612,217.602 419.112,240.935 416.5,264.5C 427.328,258.106 432.328,261.106 431.5,273.5C 432.5,273.5 433.5,273.5 434.5,273.5C 439.928,240.787 447.095,208.453 456,176.5C 464.496,165.889 475.163,162.555 488,166.5C 488.498,169.482 488.665,172.482 488.5,175.5C 490.167,175.5 491.833,175.5 493.5,175.5C 493.5,176.833 493.5,178.167 493.5,179.5 Z"/></g>
<g><path style="opacity:1" fill="#282e37" d="M 385.5,175.5 C 384.566,176.568 384.232,177.901 384.5,179.5C 386.167,179.5 387.833,179.5 389.5,179.5C 390.124,179.917 390.457,180.584 390.5,181.5C 383.756,219.891 381.256,258.558 383,297.5C 378.26,301.58 372.76,303.58 366.5,303.5C 366.579,302.07 366.246,300.736 365.5,299.5C 362.893,298.682 360.226,298.182 357.5,298C 356.667,297.167 355.833,296.333 355,295.5C 354.197,289.828 353.363,284.161 352.5,278.5C 349.911,286.276 348.244,294.276 347.5,302.5C 345.473,302.662 343.473,302.495 341.5,302C 336.841,298.774 331.841,296.107 326.5,294C 325.333,292.833 324.167,291.667 323,290.5C 319.382,304.056 310.882,308.89 297.5,305C 293.195,301.75 288.528,299.084 283.5,297C 276.966,290.761 272.966,283.261 271.5,274.5C 271.795,272.265 271.461,270.265 270.5,268.5C 268.295,223.572 286.128,189.239 324,165.5C 326.637,169.072 328.303,173.072 329,177.5C 330.676,178.061 332.009,179.061 333,180.5C 334.634,185.252 335.801,190.086 336.5,195C 336.733,198.459 335.899,201.626 334,204.5C 307.505,219.489 295.839,242.155 299,272.5C 305.032,274.006 310.699,273.006 316,269.5C 317.053,274.091 317.886,278.758 318.5,283.5C 320.384,282.885 321.384,281.552 321.5,279.5C 327.76,244.796 337.593,211.129 351,178.5C 360.41,169.029 371.576,165.862 384.5,169C 385.423,171.041 385.756,173.208 385.5,175.5 Z"/></g>
<g><path style="opacity:1" fill="#fbfbfb" d="M 484.5,170.5 C 483.172,191.004 483.172,211.671 484.5,232.5C 485.107,232.376 485.44,232.043 485.5,231.5C 491.61,212.343 498.444,193.343 506,174.5C 513.866,167.5 522.699,165.833 532.5,169.5C 525.006,207.434 521.506,245.768 522,284.5C 517.128,288.291 511.628,290.625 505.5,291.5C 505.048,266.051 506.381,240.718 509.5,215.5C 506.95,215.561 505.45,216.894 505,219.5C 499.541,238.211 493.875,256.878 488,275.5C 487.441,279.186 486.774,282.853 486,286.5C 479.817,288.626 474.484,287.293 470,282.5C 468.179,261.522 468.013,240.522 469.5,219.5C 466.95,219.561 465.45,220.894 465,223.5C 460.018,245.428 455.352,267.428 451,289.5C 445.186,291.758 440.519,290.425 437,285.5C 441.643,249.988 448.976,214.988 459,180.5C 461.247,175.288 465.08,171.788 470.5,170C 473.433,169.107 476.433,168.607 479.5,168.5C 481.64,168.556 483.306,169.223 484.5,170.5 Z"/></g>
<g><path style="opacity:1" fill="#282e36" d="M 268.5,273.5 C 269.609,273.557 270.609,273.89 271.5,274.5C 271.577,289.93 263.91,298.763 248.5,301C 243.53,302.081 238.53,302.414 233.5,302C 231.963,300.89 231.297,299.39 231.5,297.5C 226.356,298.802 222.856,297.135 221,292.5C 219.181,281.464 219.514,270.464 222,259.5C 227.269,229.11 232.769,198.777 238.5,168.5C 245.147,167.592 251.147,169.092 256.5,173C 258.97,178.073 261.803,182.906 265,187.5C 265.667,189.833 265.667,192.167 265,194.5C 259.301,216.797 254.468,239.297 250.5,262C 250.833,262.833 251.167,263.667 251.5,264.5C 255.305,262.573 259.305,261.739 263.5,262C 265.5,265.861 267.167,269.695 268.5,273.5 Z"/></g>
<g><path style="opacity:1" fill="#fbfbfb" d="M 92.5,169.5 C 94.3904,169.297 95.8904,169.963 97,171.5C 100.31,178.129 101.31,185.129 100,192.5C 92.1249,197.441 84.7916,203.107 78,209.5C 74.7275,214.043 72.5609,219.043 71.5,224.5C 73.2539,233.441 77.7539,240.774 85,246.5C 93.4894,257.372 93.4894,268.372 85,279.5C 78.1027,288.193 69.2693,293.026 58.5,294C 53.3664,290.569 50.6998,285.736 50.5,279.5C 58.7041,278.316 65.5374,274.649 71,268.5C 73.2104,263.643 72.877,258.976 70,254.5C 64.9101,248.818 59.9101,243.151 55,237.5C 52.7981,229.064 53.1315,220.731 56,212.5C 61.2224,200.947 68.389,190.781 77.5,182C 82.3981,177.592 87.3981,173.426 92.5,169.5 Z"/></g>
<g><path style="opacity:1" fill="#fafafa" d="M 312.5,275.5 C 313.468,277.607 313.802,279.941 313.5,282.5C 310.996,293.758 303.996,298.591 292.5,297C 281.564,291.651 275.731,282.818 275,270.5C 271.608,228.289 287.275,195.289 322,171.5C 324.303,172.751 325.636,174.751 326,177.5C 327.328,182.442 327.661,187.442 327,192.5C 326.215,194.286 325.049,195.786 323.5,197C 300.185,210.789 288.685,231.289 289,258.5C 289.605,274.64 297.439,280.307 312.5,275.5 Z"/></g>
<g><path style="opacity:1" fill="#fbfbfb" d="M 371.5,171.5 C 374.833,171.5 378.167,171.5 381.5,171.5C 374.686,210.217 372.186,249.217 374,288.5C 369.728,292.758 364.561,294.758 358.5,294.5C 357.167,285.167 357.167,275.833 358.5,266.5C 353.081,267.19 347.747,268.19 342.5,269.5C 340.846,277.448 339.513,285.448 338.5,293.5C 330.792,293.79 326.459,290.124 325.5,282.5C 331.413,247.852 340.913,214.185 354,181.5C 358.946,176.449 364.779,173.115 371.5,171.5 Z"/></g>
<g><path style="opacity:1" fill="#f9fafa" d="M 242.5,171.5 C 249.908,171.415 254.575,174.915 256.5,182C 249.483,211.584 243.817,241.417 239.5,271.5C 247.186,269.492 254.853,267.492 262.5,265.5C 263.214,272.857 261.214,279.357 256.5,285C 247.806,289.954 238.473,292.787 228.5,293.5C 226.68,293.351 225.18,292.684 224,291.5C 223.333,284.833 223.333,278.167 224,271.5C 229.474,238.003 235.641,204.67 242.5,171.5 Z"/></g>
<g><path style="opacity:1" fill="#f9f9fa" d="M 407.5,171.5 C 414.908,171.415 419.575,174.915 421.5,182C 417.572,201.214 413.405,220.381 409,239.5C 406.739,250.065 405.239,260.732 404.5,271.5C 412.186,269.492 419.853,267.492 427.5,265.5C 428.214,272.857 426.214,279.357 421.5,285C 412.806,289.954 403.473,292.787 393.5,293.5C 391.68,293.351 390.18,292.684 389,291.5C 388.333,284.833 388.333,278.167 389,271.5C 394.547,237.994 400.714,204.66 407.5,171.5 Z"/></g>
<g><path style="opacity:1" fill="#f9f9fa" d="M 208.5,173.5 C 212.792,173.035 216.792,173.868 220.5,176C 222.357,177.182 223.357,178.849 223.5,181C 214.193,218.675 207.86,256.842 204.5,295.5C 201.729,295.579 199.063,295.079 196.5,294C 194.323,292.485 192.156,290.985 190,289.5C 183.936,293.081 177.436,294.581 170.5,294C 167.193,291.222 165.026,287.722 164,283.5C 162.942,278.065 162.442,272.565 162.5,267C 162.83,253.365 164.33,239.865 167,226.5C 170.775,209.514 174.442,192.514 178,175.5C 182.021,174.792 185.854,175.625 189.5,178C 191.677,179.497 193.01,181.497 193.5,184C 185.944,208.947 181.278,234.447 179.5,260.5C 179.396,264.947 179.896,269.28 181,273.5C 184.118,274.748 187.118,274.414 190,272.5C 195.72,239.399 201.887,206.399 208.5,173.5 Z"/></g>
<g><path style="opacity:1" fill="#fafafa" d="M 134.5,175.5 C 144.521,173.761 151.021,177.761 154,187.5C 157.85,200.313 158.516,213.313 156,226.5C 152.717,247.35 146.05,267.016 136,285.5C 129.955,294.182 122.122,296.349 112.5,292C 110.877,289.92 109.377,287.754 108,285.5C 99.9482,250.529 104.948,217.529 123,186.5C 126.07,181.927 129.904,178.261 134.5,175.5 Z"/></g>
<g><path style="opacity:1" fill="#909397" d="M 385.5,175.5 C 385.5,176.5 385.5,177.5 385.5,178.5C 387.099,178.232 388.432,178.566 389.5,179.5C 387.833,179.5 386.167,179.5 384.5,179.5C 384.232,177.901 384.566,176.568 385.5,175.5 Z"/></g>
<g><path style="opacity:1" fill="#6a6e74" d="M 484.5,170.5 C 484.17,191.007 484.503,211.34 485.5,231.5C 485.44,232.043 485.107,232.376 484.5,232.5C 483.172,211.671 483.172,191.004 484.5,170.5 Z"/></g>
<g><path style="opacity:1" fill="#9c9fa3" d="M 493.5,179.5 C 493.181,184.363 493.514,189.03 494.5,193.5C 494.291,194.922 493.791,196.255 493,197.5C 492.181,191.319 492.347,185.319 493.5,179.5 Z"/></g>
<g><path style="opacity:1" fill="#272d36" d="M 136.5,197.5 C 140.192,197.695 142.026,199.695 142,203.5C 143.616,226.875 138.949,248.875 128,269.5C 125.966,272.859 123.632,273.192 121,270.5C 116.602,250.595 118.602,231.262 127,212.5C 129.206,206.814 132.372,201.814 136.5,197.5 Z"/></g>
<g><path style="opacity:1" fill="#2a2f38" d="M 361.5,202.5 C 362.765,203.514 363.431,205.014 363.5,207C 361.973,220.189 360.306,233.356 358.5,246.5C 354.878,247.708 351.211,248.708 347.5,249.5C 350.967,233.437 355.634,217.77 361.5,202.5 Z"/></g>
<g><path style="opacity:1" fill="#e9e9ea" d="M 137.5,217.5 C 137.881,232.408 134.715,246.741 128,260.5C 127.545,245.366 130.711,231.033 137.5,217.5 Z"/></g>
<g><path style="opacity:1" fill="#5c6067" d="M 100.5,244.5 C 100.666,251.175 100.5,257.842 100,264.5C 99.2828,263.956 98.7828,263.289 98.5,262.5C 99.1667,256.5 99.8333,250.5 100.5,244.5 Z"/></g>
<g><path style="opacity:1" fill="#707379" d="M 159.5,281.5 C 158.833,276.167 158.167,270.833 157.5,265.5C 157.709,264.078 158.209,262.745 159,261.5C 159.5,268.158 159.666,274.825 159.5,281.5 Z"/></g>
<g><path style="opacity:1" fill="#9da0a4" d="M 270.5,268.5 C 271.461,270.265 271.795,272.265 271.5,274.5C 270.609,273.89 269.609,273.557 268.5,273.5C 269.968,272.221 270.635,270.554 270.5,268.5 Z"/></g>
<g><path style="opacity:1" fill="#919499" d="M 312.5,275.5 C 312.56,274.957 312.893,274.624 313.5,274.5C 314.8,277.309 314.8,279.976 313.5,282.5C 313.802,279.941 313.468,277.607 312.5,275.5 Z"/></g>
<g><path style="opacity:1" fill="#7e8186" d="M 510.5,294.5 C 511.209,293.596 512.209,293.263 513.5,293.5C 513.5,295.5 513.5,297.5 513.5,299.5C 514.5,299.5 515.5,299.5 516.5,299.5C 515.432,300.434 514.099,300.768 512.5,300.5C 512.975,297.918 512.308,295.918 510.5,294.5 Z"/></g>
</svg>
